<mxfile host="app.diagrams.net" modified="2023-06-06T16:09:17.401Z" agent="Mozilla/5.0 (Windows NT 10.0; Win64; x64) AppleWebKit/537.36 (KHTML, like Gecko) Chrome/114.0.0.0 Safari/537.36" etag="43-Pi8k_f-aELgGB1kMq" version="21.3.7" type="device">
  <diagram name="Page-1" id="7n2MuSJaY8oGgwuTqAbb">
    <mxGraphModel dx="2600" dy="962" grid="1" gridSize="10" guides="1" tooltips="1" connect="1" arrows="1" fold="1" page="1" pageScale="1" pageWidth="850" pageHeight="1100" math="0" shadow="0">
      <root>
        <mxCell id="0" />
        <mxCell id="1" parent="0" />
        <mxCell id="2PF7OxUdOdyGUeUYsQUC-47" style="edgeStyle=orthogonalEdgeStyle;rounded=0;orthogonalLoop=1;jettySize=auto;html=1;exitX=1;exitY=0;exitDx=0;exitDy=0;entryX=0.5;entryY=0;entryDx=0;entryDy=0;" edge="1" parent="1" source="2PF7OxUdOdyGUeUYsQUC-2" target="2PF7OxUdOdyGUeUYsQUC-45">
          <mxGeometry relative="1" as="geometry">
            <Array as="points">
              <mxPoint x="368" y="260" />
              <mxPoint x="580" y="260" />
            </Array>
          </mxGeometry>
        </mxCell>
        <mxCell id="2PF7OxUdOdyGUeUYsQUC-51" style="edgeStyle=orthogonalEdgeStyle;rounded=0;orthogonalLoop=1;jettySize=auto;html=1;exitX=1;exitY=1;exitDx=0;exitDy=0;entryX=0;entryY=0;entryDx=0;entryDy=0;" edge="1" parent="1" source="2PF7OxUdOdyGUeUYsQUC-2" target="2PF7OxUdOdyGUeUYsQUC-46">
          <mxGeometry relative="1" as="geometry" />
        </mxCell>
        <mxCell id="2PF7OxUdOdyGUeUYsQUC-2" value="Educational&amp;nbsp;&lt;br&gt;Detail&amp;nbsp;&lt;br&gt;Handler" style="ellipse;whiteSpace=wrap;html=1;aspect=fixed;" vertex="1" parent="1">
          <mxGeometry x="300" y="280" width="80" height="80" as="geometry" />
        </mxCell>
        <mxCell id="2PF7OxUdOdyGUeUYsQUC-8" style="edgeStyle=orthogonalEdgeStyle;rounded=0;orthogonalLoop=1;jettySize=auto;html=1;entryX=1;entryY=0;entryDx=0;entryDy=0;" edge="1" parent="1" source="2PF7OxUdOdyGUeUYsQUC-3" target="2PF7OxUdOdyGUeUYsQUC-5">
          <mxGeometry relative="1" as="geometry">
            <Array as="points">
              <mxPoint x="220" y="140" />
              <mxPoint x="220" y="120" />
            </Array>
          </mxGeometry>
        </mxCell>
        <mxCell id="2PF7OxUdOdyGUeUYsQUC-14" style="edgeStyle=orthogonalEdgeStyle;rounded=0;orthogonalLoop=1;jettySize=auto;html=1;exitX=0.5;exitY=1;exitDx=0;exitDy=0;entryX=0.75;entryY=1;entryDx=0;entryDy=0;" edge="1" parent="1" source="2PF7OxUdOdyGUeUYsQUC-3" target="2PF7OxUdOdyGUeUYsQUC-5">
          <mxGeometry relative="1" as="geometry" />
        </mxCell>
        <mxCell id="2PF7OxUdOdyGUeUYsQUC-17" style="edgeStyle=orthogonalEdgeStyle;rounded=0;orthogonalLoop=1;jettySize=auto;html=1;exitX=1;exitY=0;exitDx=0;exitDy=0;entryX=0;entryY=0.5;entryDx=0;entryDy=0;" edge="1" parent="1" source="2PF7OxUdOdyGUeUYsQUC-3" target="2PF7OxUdOdyGUeUYsQUC-16">
          <mxGeometry relative="1" as="geometry" />
        </mxCell>
        <mxCell id="2PF7OxUdOdyGUeUYsQUC-33" style="edgeStyle=orthogonalEdgeStyle;rounded=0;orthogonalLoop=1;jettySize=auto;html=1;exitX=1;exitY=1;exitDx=0;exitDy=0;entryX=0;entryY=0;entryDx=0;entryDy=0;" edge="1" parent="1" source="2PF7OxUdOdyGUeUYsQUC-3" target="2PF7OxUdOdyGUeUYsQUC-32">
          <mxGeometry relative="1" as="geometry">
            <Array as="points">
              <mxPoint x="368" y="182" />
            </Array>
          </mxGeometry>
        </mxCell>
        <mxCell id="2PF7OxUdOdyGUeUYsQUC-3" value="Profile Handler Module" style="ellipse;whiteSpace=wrap;html=1;aspect=fixed;" vertex="1" parent="1">
          <mxGeometry x="300" y="100" width="80" height="80" as="geometry" />
        </mxCell>
        <mxCell id="2PF7OxUdOdyGUeUYsQUC-75" style="edgeStyle=orthogonalEdgeStyle;rounded=0;orthogonalLoop=1;jettySize=auto;html=1;exitX=1;exitY=0;exitDx=0;exitDy=0;entryX=0.5;entryY=0;entryDx=0;entryDy=0;" edge="1" parent="1" source="2PF7OxUdOdyGUeUYsQUC-4" target="2PF7OxUdOdyGUeUYsQUC-73">
          <mxGeometry relative="1" as="geometry">
            <Array as="points">
              <mxPoint x="364" y="450" />
              <mxPoint x="583" y="450" />
            </Array>
          </mxGeometry>
        </mxCell>
        <mxCell id="2PF7OxUdOdyGUeUYsQUC-76" style="edgeStyle=orthogonalEdgeStyle;rounded=0;orthogonalLoop=1;jettySize=auto;html=1;exitX=0;exitY=0.5;exitDx=0;exitDy=0;entryX=1;entryY=0.5;entryDx=0;entryDy=0;" edge="1" parent="1" source="2PF7OxUdOdyGUeUYsQUC-73" target="2PF7OxUdOdyGUeUYsQUC-4">
          <mxGeometry relative="1" as="geometry" />
        </mxCell>
        <mxCell id="2PF7OxUdOdyGUeUYsQUC-4" value="Visiting location Handler" style="ellipse;whiteSpace=wrap;html=1;aspect=fixed;" vertex="1" parent="1">
          <mxGeometry x="295" y="492" width="80" height="80" as="geometry" />
        </mxCell>
        <mxCell id="2PF7OxUdOdyGUeUYsQUC-6" style="edgeStyle=orthogonalEdgeStyle;rounded=0;orthogonalLoop=1;jettySize=auto;html=1;exitX=0.5;exitY=0;exitDx=0;exitDy=0;entryX=0.055;entryY=0.163;entryDx=0;entryDy=0;entryPerimeter=0;" edge="1" parent="1" source="2PF7OxUdOdyGUeUYsQUC-5" target="2PF7OxUdOdyGUeUYsQUC-3">
          <mxGeometry relative="1" as="geometry">
            <Array as="points">
              <mxPoint x="80" y="100" />
              <mxPoint x="304" y="100" />
            </Array>
          </mxGeometry>
        </mxCell>
        <mxCell id="2PF7OxUdOdyGUeUYsQUC-10" style="edgeStyle=orthogonalEdgeStyle;rounded=0;orthogonalLoop=1;jettySize=auto;html=1;exitX=1;exitY=0.75;exitDx=0;exitDy=0;entryX=0;entryY=1;entryDx=0;entryDy=0;" edge="1" parent="1" source="2PF7OxUdOdyGUeUYsQUC-5" target="2PF7OxUdOdyGUeUYsQUC-3">
          <mxGeometry relative="1" as="geometry" />
        </mxCell>
        <mxCell id="2PF7OxUdOdyGUeUYsQUC-41" style="edgeStyle=orthogonalEdgeStyle;rounded=0;orthogonalLoop=1;jettySize=auto;html=1;exitX=0.5;exitY=1;exitDx=0;exitDy=0;entryX=0;entryY=0;entryDx=0;entryDy=0;" edge="1" parent="1" source="2PF7OxUdOdyGUeUYsQUC-5" target="2PF7OxUdOdyGUeUYsQUC-2">
          <mxGeometry relative="1" as="geometry" />
        </mxCell>
        <mxCell id="2PF7OxUdOdyGUeUYsQUC-65" style="edgeStyle=orthogonalEdgeStyle;rounded=0;orthogonalLoop=1;jettySize=auto;html=1;exitX=0.25;exitY=1;exitDx=0;exitDy=0;" edge="1" parent="1" source="2PF7OxUdOdyGUeUYsQUC-5" target="2PF7OxUdOdyGUeUYsQUC-4">
          <mxGeometry relative="1" as="geometry">
            <Array as="points">
              <mxPoint x="50" y="420" />
              <mxPoint x="340" y="420" />
            </Array>
          </mxGeometry>
        </mxCell>
        <mxCell id="2PF7OxUdOdyGUeUYsQUC-66" style="edgeStyle=orthogonalEdgeStyle;rounded=0;orthogonalLoop=1;jettySize=auto;html=1;exitX=0;exitY=0;exitDx=0;exitDy=0;entryX=0;entryY=1;entryDx=0;entryDy=0;" edge="1" parent="1" source="2PF7OxUdOdyGUeUYsQUC-4" target="2PF7OxUdOdyGUeUYsQUC-5">
          <mxGeometry relative="1" as="geometry">
            <Array as="points">
              <mxPoint x="20" y="472" />
            </Array>
          </mxGeometry>
        </mxCell>
        <mxCell id="2PF7OxUdOdyGUeUYsQUC-67" style="edgeStyle=orthogonalEdgeStyle;rounded=0;orthogonalLoop=1;jettySize=auto;html=1;exitX=0;exitY=0.75;exitDx=0;exitDy=0;entryX=0;entryY=0.5;entryDx=0;entryDy=0;" edge="1" parent="1" source="2PF7OxUdOdyGUeUYsQUC-5" target="2PF7OxUdOdyGUeUYsQUC-4">
          <mxGeometry relative="1" as="geometry" />
        </mxCell>
        <mxCell id="2PF7OxUdOdyGUeUYsQUC-68" style="edgeStyle=orthogonalEdgeStyle;rounded=0;orthogonalLoop=1;jettySize=auto;html=1;exitX=0.5;exitY=1;exitDx=0;exitDy=0;entryX=0;entryY=0.5;entryDx=0;entryDy=0;" edge="1" parent="1" source="2PF7OxUdOdyGUeUYsQUC-4" target="2PF7OxUdOdyGUeUYsQUC-5">
          <mxGeometry relative="1" as="geometry">
            <Array as="points">
              <mxPoint x="340" y="572" />
              <mxPoint x="340" y="580" />
              <mxPoint x="-20" y="580" />
              <mxPoint x="-20" y="150" />
            </Array>
          </mxGeometry>
        </mxCell>
        <mxCell id="2PF7OxUdOdyGUeUYsQUC-5" value="Doctor" style="whiteSpace=wrap;html=1;" vertex="1" parent="1">
          <mxGeometry x="20" y="120" width="120" height="60" as="geometry" />
        </mxCell>
        <mxCell id="2PF7OxUdOdyGUeUYsQUC-7" value="secialization_area, specialization, location, available&amp;nbsp;" style="text;html=1;align=center;verticalAlign=middle;resizable=0;points=[];autosize=1;strokeColor=none;fillColor=none;" vertex="1" parent="1">
          <mxGeometry x="40" y="70" width="300" height="30" as="geometry" />
        </mxCell>
        <mxCell id="2PF7OxUdOdyGUeUYsQUC-9" value="response" style="text;html=1;align=center;verticalAlign=middle;resizable=0;points=[];autosize=1;strokeColor=none;fillColor=none;" vertex="1" parent="1">
          <mxGeometry x="150" y="120" width="70" height="30" as="geometry" />
        </mxCell>
        <mxCell id="2PF7OxUdOdyGUeUYsQUC-11" value="profile data request" style="text;html=1;align=center;verticalAlign=middle;resizable=0;points=[];autosize=1;strokeColor=none;fillColor=none;" vertex="1" parent="1">
          <mxGeometry x="150" y="160" width="130" height="30" as="geometry" />
        </mxCell>
        <mxCell id="2PF7OxUdOdyGUeUYsQUC-15" value="profile details" style="text;html=1;align=center;verticalAlign=middle;resizable=0;points=[];autosize=1;strokeColor=none;fillColor=none;" vertex="1" parent="1">
          <mxGeometry x="160" y="200" width="90" height="30" as="geometry" />
        </mxCell>
        <mxCell id="2PF7OxUdOdyGUeUYsQUC-19" style="edgeStyle=orthogonalEdgeStyle;rounded=0;orthogonalLoop=1;jettySize=auto;html=1;exitX=0;exitY=1;exitDx=0;exitDy=0;entryX=1;entryY=0.5;entryDx=0;entryDy=0;" edge="1" parent="1" source="2PF7OxUdOdyGUeUYsQUC-16" target="2PF7OxUdOdyGUeUYsQUC-3">
          <mxGeometry relative="1" as="geometry" />
        </mxCell>
        <mxCell id="2PF7OxUdOdyGUeUYsQUC-23" style="edgeStyle=orthogonalEdgeStyle;rounded=0;orthogonalLoop=1;jettySize=auto;html=1;exitX=1;exitY=0;exitDx=0;exitDy=0;entryX=0.5;entryY=0;entryDx=0;entryDy=0;" edge="1" parent="1" source="2PF7OxUdOdyGUeUYsQUC-16" target="2PF7OxUdOdyGUeUYsQUC-21">
          <mxGeometry relative="1" as="geometry">
            <Array as="points">
              <mxPoint x="598" y="50" />
              <mxPoint x="760" y="50" />
            </Array>
          </mxGeometry>
        </mxCell>
        <mxCell id="2PF7OxUdOdyGUeUYsQUC-29" style="edgeStyle=orthogonalEdgeStyle;rounded=0;orthogonalLoop=1;jettySize=auto;html=1;entryX=1;entryY=0.5;entryDx=0;entryDy=0;" edge="1" parent="1" source="2PF7OxUdOdyGUeUYsQUC-21" target="2PF7OxUdOdyGUeUYsQUC-16">
          <mxGeometry relative="1" as="geometry" />
        </mxCell>
        <mxCell id="2PF7OxUdOdyGUeUYsQUC-16" value="seialization" style="ellipse;whiteSpace=wrap;html=1;aspect=fixed;" vertex="1" parent="1">
          <mxGeometry x="530" y="70" width="80" height="80" as="geometry" />
        </mxCell>
        <mxCell id="2PF7OxUdOdyGUeUYsQUC-18" value="new profile details" style="text;html=1;align=center;verticalAlign=middle;resizable=0;points=[];autosize=1;strokeColor=none;fillColor=none;" vertex="1" parent="1">
          <mxGeometry x="380" y="80" width="120" height="30" as="geometry" />
        </mxCell>
        <mxCell id="2PF7OxUdOdyGUeUYsQUC-20" value="response" style="text;html=1;align=center;verticalAlign=middle;resizable=0;points=[];autosize=1;strokeColor=none;fillColor=none;" vertex="1" parent="1">
          <mxGeometry x="430" y="140" width="70" height="30" as="geometry" />
        </mxCell>
        <mxCell id="2PF7OxUdOdyGUeUYsQUC-39" style="edgeStyle=orthogonalEdgeStyle;rounded=0;orthogonalLoop=1;jettySize=auto;html=1;entryX=1;entryY=1;entryDx=0;entryDy=0;" edge="1" parent="1" source="2PF7OxUdOdyGUeUYsQUC-21" target="2PF7OxUdOdyGUeUYsQUC-32">
          <mxGeometry relative="1" as="geometry">
            <Array as="points">
              <mxPoint x="760" y="238" />
            </Array>
          </mxGeometry>
        </mxCell>
        <mxCell id="2PF7OxUdOdyGUeUYsQUC-21" value="Doctor Profile&amp;nbsp;&lt;br&gt;database" style="shape=partialRectangle;whiteSpace=wrap;html=1;left=0;right=0;fillColor=none;" vertex="1" parent="1">
          <mxGeometry x="700" y="80" width="120" height="50" as="geometry" />
        </mxCell>
        <mxCell id="2PF7OxUdOdyGUeUYsQUC-24" value="new record" style="text;html=1;align=center;verticalAlign=middle;resizable=0;points=[];autosize=1;strokeColor=none;fillColor=none;" vertex="1" parent="1">
          <mxGeometry x="635" y="20" width="80" height="30" as="geometry" />
        </mxCell>
        <mxCell id="2PF7OxUdOdyGUeUYsQUC-30" value="sucess" style="text;html=1;align=center;verticalAlign=middle;resizable=0;points=[];autosize=1;strokeColor=none;fillColor=none;" vertex="1" parent="1">
          <mxGeometry x="610" y="80" width="60" height="30" as="geometry" />
        </mxCell>
        <mxCell id="2PF7OxUdOdyGUeUYsQUC-35" style="edgeStyle=orthogonalEdgeStyle;rounded=0;orthogonalLoop=1;jettySize=auto;html=1;entryX=0.625;entryY=1.023;entryDx=0;entryDy=0;entryPerimeter=0;" edge="1" parent="1" source="2PF7OxUdOdyGUeUYsQUC-32" target="2PF7OxUdOdyGUeUYsQUC-3">
          <mxGeometry relative="1" as="geometry">
            <Array as="points">
              <mxPoint x="350" y="210" />
            </Array>
          </mxGeometry>
        </mxCell>
        <mxCell id="2PF7OxUdOdyGUeUYsQUC-37" style="edgeStyle=orthogonalEdgeStyle;rounded=0;orthogonalLoop=1;jettySize=auto;html=1;exitX=1;exitY=0;exitDx=0;exitDy=0;entryX=0.25;entryY=1;entryDx=0;entryDy=0;" edge="1" parent="1" source="2PF7OxUdOdyGUeUYsQUC-32" target="2PF7OxUdOdyGUeUYsQUC-21">
          <mxGeometry relative="1" as="geometry" />
        </mxCell>
        <mxCell id="2PF7OxUdOdyGUeUYsQUC-32" value="fetch doctor profile" style="ellipse;whiteSpace=wrap;html=1;aspect=fixed;" vertex="1" parent="1">
          <mxGeometry x="540" y="170" width="80" height="80" as="geometry" />
        </mxCell>
        <mxCell id="2PF7OxUdOdyGUeUYsQUC-34" value="request profile details with id" style="text;html=1;align=center;verticalAlign=middle;resizable=0;points=[];autosize=1;strokeColor=none;fillColor=none;" vertex="1" parent="1">
          <mxGeometry x="355" y="178" width="170" height="30" as="geometry" />
        </mxCell>
        <mxCell id="2PF7OxUdOdyGUeUYsQUC-36" value="profile details of id" style="text;html=1;align=center;verticalAlign=middle;resizable=0;points=[];autosize=1;strokeColor=none;fillColor=none;" vertex="1" parent="1">
          <mxGeometry x="375" y="208" width="120" height="30" as="geometry" />
        </mxCell>
        <mxCell id="2PF7OxUdOdyGUeUYsQUC-38" value="get profile details" style="text;html=1;align=center;verticalAlign=middle;resizable=0;points=[];autosize=1;strokeColor=none;fillColor=none;" vertex="1" parent="1">
          <mxGeometry x="610" y="178" width="110" height="30" as="geometry" />
        </mxCell>
        <mxCell id="2PF7OxUdOdyGUeUYsQUC-40" value="profile details" style="text;html=1;align=center;verticalAlign=middle;resizable=0;points=[];autosize=1;strokeColor=none;fillColor=none;" vertex="1" parent="1">
          <mxGeometry x="640" y="210" width="90" height="30" as="geometry" />
        </mxCell>
        <mxCell id="2PF7OxUdOdyGUeUYsQUC-42" value="request&amp;nbsp; educational details" style="text;html=1;align=center;verticalAlign=middle;resizable=0;points=[];autosize=1;strokeColor=none;fillColor=none;" vertex="1" parent="1">
          <mxGeometry x="90" y="230" width="170" height="30" as="geometry" />
        </mxCell>
        <mxCell id="2PF7OxUdOdyGUeUYsQUC-49" style="edgeStyle=orthogonalEdgeStyle;rounded=0;orthogonalLoop=1;jettySize=auto;html=1;exitX=0;exitY=0.5;exitDx=0;exitDy=0;entryX=1;entryY=0.5;entryDx=0;entryDy=0;" edge="1" parent="1" source="2PF7OxUdOdyGUeUYsQUC-45" target="2PF7OxUdOdyGUeUYsQUC-2">
          <mxGeometry relative="1" as="geometry" />
        </mxCell>
        <mxCell id="2PF7OxUdOdyGUeUYsQUC-57" style="edgeStyle=orthogonalEdgeStyle;rounded=0;orthogonalLoop=1;jettySize=auto;html=1;exitX=1;exitY=0;exitDx=0;exitDy=0;entryX=0.5;entryY=0;entryDx=0;entryDy=0;" edge="1" parent="1" source="2PF7OxUdOdyGUeUYsQUC-45" target="2PF7OxUdOdyGUeUYsQUC-56">
          <mxGeometry relative="1" as="geometry" />
        </mxCell>
        <mxCell id="2PF7OxUdOdyGUeUYsQUC-45" value="serialization" style="ellipse;whiteSpace=wrap;html=1;aspect=fixed;" vertex="1" parent="1">
          <mxGeometry x="540" y="270" width="80" height="80" as="geometry" />
        </mxCell>
        <mxCell id="2PF7OxUdOdyGUeUYsQUC-53" style="edgeStyle=orthogonalEdgeStyle;rounded=0;orthogonalLoop=1;jettySize=auto;html=1;entryX=0.5;entryY=1;entryDx=0;entryDy=0;" edge="1" parent="1" source="2PF7OxUdOdyGUeUYsQUC-46" target="2PF7OxUdOdyGUeUYsQUC-2">
          <mxGeometry relative="1" as="geometry" />
        </mxCell>
        <mxCell id="2PF7OxUdOdyGUeUYsQUC-61" style="edgeStyle=orthogonalEdgeStyle;rounded=0;orthogonalLoop=1;jettySize=auto;html=1;exitX=1;exitY=0;exitDx=0;exitDy=0;entryX=0;entryY=0.75;entryDx=0;entryDy=0;" edge="1" parent="1" source="2PF7OxUdOdyGUeUYsQUC-46" target="2PF7OxUdOdyGUeUYsQUC-56">
          <mxGeometry relative="1" as="geometry" />
        </mxCell>
        <mxCell id="2PF7OxUdOdyGUeUYsQUC-46" value="fetch doctor&lt;br&gt;educational details&amp;nbsp;" style="ellipse;whiteSpace=wrap;html=1;aspect=fixed;" vertex="1" parent="1">
          <mxGeometry x="540" y="360" width="80" height="80" as="geometry" />
        </mxCell>
        <mxCell id="2PF7OxUdOdyGUeUYsQUC-48" value="new educational details" style="text;html=1;align=center;verticalAlign=middle;resizable=0;points=[];autosize=1;strokeColor=none;fillColor=none;" vertex="1" parent="1">
          <mxGeometry x="375" y="258" width="150" height="30" as="geometry" />
        </mxCell>
        <mxCell id="2PF7OxUdOdyGUeUYsQUC-50" value="response" style="text;html=1;align=center;verticalAlign=middle;resizable=0;points=[];autosize=1;strokeColor=none;fillColor=none;" vertex="1" parent="1">
          <mxGeometry x="390" y="295" width="70" height="30" as="geometry" />
        </mxCell>
        <mxCell id="2PF7OxUdOdyGUeUYsQUC-52" value="user id" style="text;html=1;align=center;verticalAlign=middle;resizable=0;points=[];autosize=1;strokeColor=none;fillColor=none;" vertex="1" parent="1">
          <mxGeometry x="395" y="325" width="60" height="30" as="geometry" />
        </mxCell>
        <mxCell id="2PF7OxUdOdyGUeUYsQUC-54" value="educational details&amp;nbsp;" style="text;html=1;align=center;verticalAlign=middle;resizable=0;points=[];autosize=1;strokeColor=none;fillColor=none;" vertex="1" parent="1">
          <mxGeometry x="360" y="378" width="130" height="30" as="geometry" />
        </mxCell>
        <mxCell id="2PF7OxUdOdyGUeUYsQUC-59" style="edgeStyle=orthogonalEdgeStyle;rounded=0;orthogonalLoop=1;jettySize=auto;html=1;exitX=0.25;exitY=0;exitDx=0;exitDy=0;" edge="1" parent="1" source="2PF7OxUdOdyGUeUYsQUC-56" target="2PF7OxUdOdyGUeUYsQUC-45">
          <mxGeometry relative="1" as="geometry" />
        </mxCell>
        <mxCell id="2PF7OxUdOdyGUeUYsQUC-63" style="edgeStyle=orthogonalEdgeStyle;rounded=0;orthogonalLoop=1;jettySize=auto;html=1;exitX=0.25;exitY=1;exitDx=0;exitDy=0;entryX=1;entryY=1;entryDx=0;entryDy=0;" edge="1" parent="1" source="2PF7OxUdOdyGUeUYsQUC-56" target="2PF7OxUdOdyGUeUYsQUC-46">
          <mxGeometry relative="1" as="geometry" />
        </mxCell>
        <mxCell id="2PF7OxUdOdyGUeUYsQUC-56" value="Educational details database" style="shape=partialRectangle;whiteSpace=wrap;html=1;left=0;right=0;fillColor=none;" vertex="1" parent="1">
          <mxGeometry x="710" y="330" width="120" height="60" as="geometry" />
        </mxCell>
        <mxCell id="2PF7OxUdOdyGUeUYsQUC-58" value="new data" style="text;html=1;align=center;verticalAlign=middle;resizable=0;points=[];autosize=1;strokeColor=none;fillColor=none;" vertex="1" parent="1">
          <mxGeometry x="650" y="250" width="70" height="30" as="geometry" />
        </mxCell>
        <mxCell id="2PF7OxUdOdyGUeUYsQUC-60" value="success" style="text;html=1;align=center;verticalAlign=middle;resizable=0;points=[];autosize=1;strokeColor=none;fillColor=none;" vertex="1" parent="1">
          <mxGeometry x="625" y="308" width="70" height="30" as="geometry" />
        </mxCell>
        <mxCell id="2PF7OxUdOdyGUeUYsQUC-62" value="get details" style="text;html=1;align=center;verticalAlign=middle;resizable=0;points=[];autosize=1;strokeColor=none;fillColor=none;" vertex="1" parent="1">
          <mxGeometry x="600" y="348" width="80" height="30" as="geometry" />
        </mxCell>
        <mxCell id="2PF7OxUdOdyGUeUYsQUC-64" value="saved educational data" style="text;html=1;align=center;verticalAlign=middle;resizable=0;points=[];autosize=1;strokeColor=none;fillColor=none;" vertex="1" parent="1">
          <mxGeometry x="605" y="430" width="150" height="30" as="geometry" />
        </mxCell>
        <mxCell id="2PF7OxUdOdyGUeUYsQUC-69" value="street_location, district, city, state, pincode ..." style="text;html=1;align=center;verticalAlign=middle;resizable=0;points=[];autosize=1;strokeColor=none;fillColor=none;" vertex="1" parent="1">
          <mxGeometry x="55" y="390" width="260" height="30" as="geometry" />
        </mxCell>
        <mxCell id="2PF7OxUdOdyGUeUYsQUC-70" value="response" style="text;html=1;align=center;verticalAlign=middle;resizable=0;points=[];autosize=1;strokeColor=none;fillColor=none;" vertex="1" parent="1">
          <mxGeometry x="120" y="450" width="70" height="30" as="geometry" />
        </mxCell>
        <mxCell id="2PF7OxUdOdyGUeUYsQUC-71" value="request visiting hour details" style="text;html=1;align=center;verticalAlign=middle;resizable=0;points=[];autosize=1;strokeColor=none;fillColor=none;" vertex="1" parent="1">
          <mxGeometry x="40" y="510" width="170" height="30" as="geometry" />
        </mxCell>
        <mxCell id="2PF7OxUdOdyGUeUYsQUC-72" value="visiting hour details" style="text;html=1;align=center;verticalAlign=middle;resizable=0;points=[];autosize=1;strokeColor=none;fillColor=none;" vertex="1" parent="1">
          <mxGeometry x="65" y="558" width="130" height="30" as="geometry" />
        </mxCell>
        <mxCell id="2PF7OxUdOdyGUeUYsQUC-77" style="edgeStyle=orthogonalEdgeStyle;rounded=0;orthogonalLoop=1;jettySize=auto;html=1;exitX=1;exitY=1;exitDx=0;exitDy=0;entryX=0;entryY=0;entryDx=0;entryDy=0;" edge="1" parent="1" source="2PF7OxUdOdyGUeUYsQUC-4" target="2PF7OxUdOdyGUeUYsQUC-74">
          <mxGeometry relative="1" as="geometry">
            <mxPoint x="360" y="579.9999999999998" as="sourcePoint" />
            <Array as="points">
              <mxPoint x="363" y="600" />
              <mxPoint x="562" y="600" />
            </Array>
          </mxGeometry>
        </mxCell>
        <mxCell id="2PF7OxUdOdyGUeUYsQUC-78" style="edgeStyle=orthogonalEdgeStyle;rounded=0;orthogonalLoop=1;jettySize=auto;html=1;exitX=0.5;exitY=1;exitDx=0;exitDy=0;" edge="1" parent="1" source="2PF7OxUdOdyGUeUYsQUC-73">
          <mxGeometry relative="1" as="geometry">
            <mxPoint x="582.0588235294117" y="570.4117647058824" as="targetPoint" />
          </mxGeometry>
        </mxCell>
        <mxCell id="2PF7OxUdOdyGUeUYsQUC-88" style="edgeStyle=orthogonalEdgeStyle;rounded=0;orthogonalLoop=1;jettySize=auto;html=1;exitX=0;exitY=0.25;exitDx=0;exitDy=0;entryX=1;entryY=0.5;entryDx=0;entryDy=0;" edge="1" parent="1" source="2PF7OxUdOdyGUeUYsQUC-86" target="2PF7OxUdOdyGUeUYsQUC-73">
          <mxGeometry relative="1" as="geometry" />
        </mxCell>
        <mxCell id="2PF7OxUdOdyGUeUYsQUC-73" value="serialization" style="ellipse;whiteSpace=wrap;html=1;aspect=fixed;" vertex="1" parent="1">
          <mxGeometry x="540" y="485" width="85" height="85" as="geometry" />
        </mxCell>
        <mxCell id="2PF7OxUdOdyGUeUYsQUC-79" style="edgeStyle=orthogonalEdgeStyle;rounded=0;orthogonalLoop=1;jettySize=auto;html=1;entryX=0.674;entryY=1.015;entryDx=0;entryDy=0;entryPerimeter=0;" edge="1" parent="1" source="2PF7OxUdOdyGUeUYsQUC-74" target="2PF7OxUdOdyGUeUYsQUC-4">
          <mxGeometry relative="1" as="geometry">
            <Array as="points">
              <mxPoint x="349" y="640" />
            </Array>
          </mxGeometry>
        </mxCell>
        <mxCell id="2PF7OxUdOdyGUeUYsQUC-91" style="edgeStyle=orthogonalEdgeStyle;rounded=0;orthogonalLoop=1;jettySize=auto;html=1;exitX=1;exitY=0;exitDx=0;exitDy=0;entryX=0;entryY=0.75;entryDx=0;entryDy=0;" edge="1" parent="1" source="2PF7OxUdOdyGUeUYsQUC-74" target="2PF7OxUdOdyGUeUYsQUC-86">
          <mxGeometry relative="1" as="geometry">
            <Array as="points">
              <mxPoint x="630" y="612" />
              <mxPoint x="630" y="547" />
            </Array>
          </mxGeometry>
        </mxCell>
        <mxCell id="2PF7OxUdOdyGUeUYsQUC-74" value="fetch visiting location details" style="ellipse;whiteSpace=wrap;html=1;aspect=fixed;" vertex="1" parent="1">
          <mxGeometry x="550" y="600" width="80" height="80" as="geometry" />
        </mxCell>
        <mxCell id="2PF7OxUdOdyGUeUYsQUC-80" value="new visiting location details" style="text;html=1;align=center;verticalAlign=middle;resizable=0;points=[];autosize=1;strokeColor=none;fillColor=none;" vertex="1" parent="1">
          <mxGeometry x="355" y="418" width="170" height="30" as="geometry" />
        </mxCell>
        <mxCell id="2PF7OxUdOdyGUeUYsQUC-81" value="response" style="text;html=1;align=center;verticalAlign=middle;resizable=0;points=[];autosize=1;strokeColor=none;fillColor=none;" vertex="1" parent="1">
          <mxGeometry x="435" y="498" width="70" height="30" as="geometry" />
        </mxCell>
        <mxCell id="2PF7OxUdOdyGUeUYsQUC-82" value="user id" style="text;html=1;align=center;verticalAlign=middle;resizable=0;points=[];autosize=1;strokeColor=none;fillColor=none;" vertex="1" parent="1">
          <mxGeometry x="400" y="572" width="60" height="30" as="geometry" />
        </mxCell>
        <mxCell id="2PF7OxUdOdyGUeUYsQUC-84" value="visiting hour details" style="text;html=1;align=center;verticalAlign=middle;resizable=0;points=[];autosize=1;strokeColor=none;fillColor=none;" vertex="1" parent="1">
          <mxGeometry x="350" y="638" width="130" height="30" as="geometry" />
        </mxCell>
        <mxCell id="2PF7OxUdOdyGUeUYsQUC-87" style="edgeStyle=orthogonalEdgeStyle;rounded=0;orthogonalLoop=1;jettySize=auto;html=1;exitX=1;exitY=0;exitDx=0;exitDy=0;entryX=0.5;entryY=0;entryDx=0;entryDy=0;" edge="1" parent="1" source="2PF7OxUdOdyGUeUYsQUC-73" target="2PF7OxUdOdyGUeUYsQUC-86">
          <mxGeometry relative="1" as="geometry">
            <Array as="points">
              <mxPoint x="613" y="482" />
              <mxPoint x="780" y="482" />
            </Array>
          </mxGeometry>
        </mxCell>
        <mxCell id="2PF7OxUdOdyGUeUYsQUC-93" style="edgeStyle=orthogonalEdgeStyle;rounded=0;orthogonalLoop=1;jettySize=auto;html=1;exitX=0.25;exitY=1;exitDx=0;exitDy=0;entryX=1.004;entryY=0.618;entryDx=0;entryDy=0;entryPerimeter=0;" edge="1" parent="1" source="2PF7OxUdOdyGUeUYsQUC-86" target="2PF7OxUdOdyGUeUYsQUC-74">
          <mxGeometry relative="1" as="geometry" />
        </mxCell>
        <mxCell id="2PF7OxUdOdyGUeUYsQUC-86" value="Visiting location Database" style="shape=partialRectangle;whiteSpace=wrap;html=1;left=0;right=0;fillColor=none;" vertex="1" parent="1">
          <mxGeometry x="720" y="502" width="120" height="60" as="geometry" />
        </mxCell>
        <mxCell id="2PF7OxUdOdyGUeUYsQUC-89" value="new record" style="text;html=1;align=center;verticalAlign=middle;resizable=0;points=[];autosize=1;strokeColor=none;fillColor=none;" vertex="1" parent="1">
          <mxGeometry x="650" y="458" width="80" height="30" as="geometry" />
        </mxCell>
        <mxCell id="2PF7OxUdOdyGUeUYsQUC-90" value="success" style="text;html=1;align=center;verticalAlign=middle;resizable=0;points=[];autosize=1;strokeColor=none;fillColor=none;" vertex="1" parent="1">
          <mxGeometry x="635" y="518" width="70" height="30" as="geometry" />
        </mxCell>
        <mxCell id="2PF7OxUdOdyGUeUYsQUC-92" value="get details" style="text;html=1;align=center;verticalAlign=middle;resizable=0;points=[];autosize=1;strokeColor=none;fillColor=none;" vertex="1" parent="1">
          <mxGeometry x="630" y="558" width="80" height="30" as="geometry" />
        </mxCell>
        <mxCell id="2PF7OxUdOdyGUeUYsQUC-94" value="stored visiting location details" style="text;html=1;align=center;verticalAlign=middle;resizable=0;points=[];autosize=1;strokeColor=none;fillColor=none;" vertex="1" parent="1">
          <mxGeometry x="630" y="650" width="180" height="30" as="geometry" />
        </mxCell>
      </root>
    </mxGraphModel>
  </diagram>
</mxfile>
